<?xml version="1.0" encoding="UTF-8"?><svg id="Ebene_1" xmlns="http://www.w3.org/2000/svg" viewBox="0 0 841.89 354.61"><defs><style>.cls-1{fill:#848c9c;}.cls-2{fill:#a81127;}</style></defs><g><path class="cls-1" d="m104.21,263.18c0-1.49,1.19-2.38,2.38-2.38h13.4c8.04,0,12.21,5.36,12.21,11.91s-4.47,11.91-12.21,11.91h-11.02v13.1c0,1.49-1.19,2.38-2.38,2.38h0c-1.49,0-2.38-1.19-2.38-2.38v-34.53Zm15.18,2.08h-10.42v14.89h10.42c4.76,0,7.74-2.98,7.74-7.44.3-4.47-2.98-7.44-7.74-7.44Z"/><path class="cls-1" d="m162.56,291.46h-19.95l-2.98,7.14c-.3.89-1.19,1.49-2.38,1.49h0c-1.79,0-2.98-1.79-2.38-3.57l13.69-34.24c.3-.89,1.19-1.49,2.38-1.49h2.68c.89,0,2.08.6,2.38,1.49l13.69,34.24c.6,1.79-.6,3.57-2.38,3.57h0c-.89,0-2.08-.6-2.38-1.49l-2.38-7.14Zm-18.46-4.47h16.97l-8.63-21.73-8.34,21.73Z"/><path class="cls-1" d="m178.34,292.95c.89-.89,2.38-1.19,3.27-.3,2.68,2.08,6.25,3.87,10.72,3.87,7.14,0,9.23-3.87,9.23-6.85,0-4.76-4.76-5.95-9.82-7.44-6.25-1.79-13.4-3.27-13.4-11.02,0-6.55,5.66-11.02,13.4-11.02,5.06,0,9.23,1.49,12.21,3.87.89.89,1.19,2.38.3,3.27h0c-.89.89-2.08,1.19-2.98.3-2.68-2.08-6.25-3.27-9.82-3.27-4.76,0-8.04,2.68-8.04,6.25,0,3.87,4.47,5.06,9.53,6.55,6.55,1.79,13.69,3.57,13.69,11.91,0,5.66-3.87,11.61-14.59,11.61-5.95,0-10.42-1.79-13.69-4.76-.89-.6-.89-2.08,0-2.98h0Z"/><path class="cls-1" d="m216.15,292.95c.89-.89,2.38-1.19,3.27-.3,2.68,2.08,6.25,3.87,10.72,3.87,7.14,0,9.23-3.87,9.23-6.85,0-4.76-4.76-5.95-9.82-7.44-6.25-1.79-13.4-3.27-13.4-11.02,0-6.55,5.66-11.02,13.4-11.02,5.06,0,9.23,1.49,12.21,3.87.89.89,1.19,2.38.3,3.27h0c-.89.89-2.08,1.19-2.98.3-2.68-2.08-6.25-3.27-9.82-3.27-4.76,0-8.04,2.68-8.04,6.25,0,3.87,4.47,5.06,9.53,6.55,6.55,1.79,13.69,3.57,13.69,11.91,0,5.66-3.87,11.61-14.59,11.61-5.95,0-10.42-1.79-13.69-4.76-.6-.6-.6-2.08,0-2.98h0Z"/><path class="cls-1" d="m257.82,260.8h0c1.49,0,2.38,1.19,2.38,2.38v34.53c0,1.49-1.19,2.38-2.38,2.38h0c-1.49,0-2.38-1.19-2.38-2.38v-34.53c-.3-1.19.89-2.38,2.38-2.38Z"/><path class="cls-1" d="m290.87,260.2c11.61,0,19.65,8.63,19.65,20.24s-8.04,20.24-19.65,20.24-19.65-8.63-19.65-20.24,7.74-20.24,19.65-20.24Zm0,4.17c-8.93,0-14.29,6.85-14.29,16.08s5.66,16.08,14.29,16.08,14.29-6.85,14.29-16.08c0-9.23-5.66-16.08-14.29-16.08Z"/><path class="cls-1" d="m326.3,268.24v29.18c0,1.49-1.19,2.38-2.38,2.38h0c-1.49,0-2.38-1.19-2.38-2.38v-34.53c0-1.49,1.19-2.38,2.38-2.38h1.19c.89,0,1.49.3,2.08.89l22.03,30.07v-28.58c0-1.49,1.19-2.38,2.38-2.38h0c1.49,0,2.38,1.19,2.38,2.38v34.53c0,1.49-1.19,2.38-2.38,2.38h-.89c-.89,0-1.49-.3-2.08-.89l-22.33-30.66Z"/><path class="cls-1" d="m415.91,291.46h-19.95l-2.98,7.14c-.3.89-1.19,1.49-2.38,1.49h0c-1.79,0-2.98-1.79-2.38-3.57l13.69-34.24c.3-.89,1.19-1.49,2.38-1.49h2.68c.89,0,2.08.6,2.38,1.49l13.69,34.24c.6,1.79-.6,3.57-2.38,3.57h0c-.89,0-2.08-.6-2.38-1.49l-2.38-7.14Zm-18.46-4.47h16.97l-8.63-21.73-8.34,21.73Z"/><path class="cls-1" d="m431.69,292.95c.89-.89,2.38-1.19,3.27-.3,2.68,2.08,6.25,3.87,10.72,3.87,7.14,0,9.23-3.87,9.23-6.85,0-4.76-4.76-5.95-9.82-7.44-6.25-1.79-13.4-3.27-13.4-11.02,0-6.55,5.66-11.02,13.4-11.02,5.06,0,9.23,1.49,12.21,3.87.89.89,1.19,2.38.3,3.27h0c-.89.89-2.08,1.19-2.98.3-2.68-2.08-6.25-3.27-9.82-3.27-4.76,0-8.04,2.68-8.04,6.25,0,3.87,4.47,5.06,9.53,6.55,6.55,1.79,13.69,3.57,13.69,11.91,0,5.66-3.87,11.61-14.59,11.61-5.95,0-10.42-1.79-13.69-4.76-.89-.6-.89-2.08,0-2.98h0Z"/><path class="cls-1" d="m520.11,291.46h-19.95l-2.98,7.14c-.3.89-1.19,1.49-2.38,1.49h0c-1.79,0-2.98-1.79-2.38-3.57l13.69-34.24c.3-.89,1.19-1.49,2.38-1.49h2.68c.89,0,2.08.6,2.38,1.49l13.69,34.24c.6,1.79-.6,3.57-2.38,3.57h0c-.89,0-2.08-.6-2.38-1.49l-2.38-7.14Zm-18.46-4.47h16.97l-8.63-21.73-8.34,21.73Z"/><path class="cls-1" d="m561.2,292.95c.89-.89,2.38-1.19,3.27-.3,2.68,2.08,6.25,3.87,10.72,3.87,7.14,0,9.23-3.87,9.23-6.85,0-4.76-4.76-5.95-9.82-7.44-6.25-1.79-13.4-3.27-13.4-11.02,0-6.55,5.66-11.02,13.4-11.02,5.06,0,9.23,1.49,12.21,3.87.89.89,1.19,2.38.3,3.27h0c-.89.89-2.08,1.19-2.98.3-2.68-2.08-6.25-3.27-9.82-3.27-4.76,0-8.04,2.68-8.04,6.25,0,3.87,4.47,5.06,9.53,6.55,6.55,1.79,13.69,3.57,13.69,11.91,0,5.66-3.87,11.61-14.59,11.61-5.95,0-10.42-1.79-13.69-4.76-.89-.6-.89-2.08,0-2.98h0Z"/><path class="cls-1" d="m602.28,260.8h21.43c1.19,0,2.08.89,2.08,2.08h0c0,1.19-.89,2.08-2.08,2.08h-18.76v12.8h18.16c1.19,0,2.08.89,2.08,2.08h0c0,1.19-.89,2.08-2.08,2.08h-18.16v13.69h18.76c1.19,0,2.08.89,2.08,2.08h0c0,1.19-.89,2.08-2.08,2.08h-21.43c-1.19,0-2.08-.89-2.08-2.08v-34.83c0-1.19.89-2.08,2.08-2.08Z"/><path class="cls-1" d="m649.91,284.61h-7.74v13.1c0,1.49-1.19,2.38-2.38,2.38h0c-1.49,0-2.38-1.19-2.38-2.38v-34.53c0-1.49,1.19-2.38,2.38-2.38h13.4c7.14,0,12.21,4.47,12.21,11.91s-4.76,11.02-10.12,11.31l10.72,16.08h-4.47c-.89,0-1.49-.3-2.08-1.19l-9.53-14.29Zm2.38-19.35h-10.42v14.89h10.42c4.76,0,7.74-2.98,7.74-7.44.3-4.47-2.98-7.44-7.74-7.44Z"/><path class="cls-1" d="m675.52,260.8h0c1.19,0,2.08.6,2.38,1.79l12.5,32.15,12.5-32.15c.3-.89,1.49-1.79,2.38-1.79h0c1.79,0,2.98,1.79,2.38,3.57l-13.69,34.24c-.3.89-1.49,1.49-2.38,1.49h-2.08c-1.19,0-2.08-.6-2.38-1.49l-13.69-34.24c-.89-1.79.3-3.57,2.08-3.57Z"/><path class="cls-1" d="m720.47,260.8h0c1.49,0,2.38,1.19,2.38,2.38v34.53c0,1.49-1.19,2.38-2.38,2.38h0c-1.49,0-2.38-1.19-2.38-2.38v-34.53c0-1.19,1.19-2.38,2.38-2.38Z"/><path class="cls-1" d="m734.16,280.44c0-12.21,8.93-20.24,19.95-20.24,5.95,0,10.12,2.38,13.4,5.66.89,1.19.6,2.98-.6,3.57h0c-.89.6-2.08.3-2.68-.3-2.38-2.68-5.95-4.47-9.82-4.47-8.34,0-14.89,6.55-14.89,16.08s6.55,16.08,14.89,16.08c3.87,0,7.44-1.79,9.82-4.47.6-.89,1.79-.89,2.68-.6h0c1.19.6,1.49,2.38.6,3.57-3.27,3.27-7.44,5.66-13.4,5.66-11.02-.3-19.95-8.34-19.95-20.54Z"/><path class="cls-1" d="m781.2,260.8h21.43c1.19,0,2.08.89,2.08,2.08h0c0,1.19-.89,2.08-2.08,2.08h-18.76v12.8h18.16c1.19,0,2.08.89,2.08,2.08h0c0,1.19-.89,2.08-2.08,2.08h-18.16v13.69h18.76c1.19,0,2.08.89,2.08,2.08h0c0,1.19-.89,2.08-2.08,2.08h-21.43c-1.19,0-2.08-.89-2.08-2.08v-34.83c0-1.19.89-2.08,2.08-2.08Z"/></g><g><g><path class="cls-2" d="m261.74,117.69h-40.12v97.8c0,8.2,6.74,14.93,14.93,14.93h25.48c35.14,0,58.57-23.72,58.57-56.22-.29-32.5-23.72-56.52-58.86-56.52Zm0,97.8h-23.43v-83.16h23.43c26.65,0,41,18.45,41,41.58s-14.93,41.58-41,41.58Z"/><path class="cls-2" d="m411.37,132.33c8.2,0,14.93-6.74,14.93-14.93h-68.23c-4.1,0-7.32,3.22-7.32,7.32v97.8c0,4.1,3.22,7.32,7.32,7.32h60.62c4.1,0,7.32-3.22,7.32-7.32s-3.22-7.32-7.32-7.32h-51.24v-35.14h50.07c4.1,0,7.32-3.22,7.32-7.32s-3.22-7.32-7.32-7.32h-50.07v-33.09h43.92Z"/><path class="cls-2" d="m497.46,163.66c-14.06-3.51-26.06-6.74-26.06-16.98,0-9.37,8.49-15.81,21.08-15.81,7.91,0,15.52,1.76,22.25,5.27,6.74,3.51,15.52,1.46,20.21-4.69-9.96-10.25-23.72-15.81-41-15.81-23.43,0-39.82,13.47-39.82,32.21,0,22.84,21.08,28.11,38.95,32.8,14.35,3.81,27.23,7.03,27.23,19.03,0,8.2-6.44,17.28-24.6,17.28-12.01,0-21.96-4.39-29.28-10.25-3.51-2.93-8.78-2.05-11.42,1.46h0c-2.64,3.51-2.05,8.2,1.17,11.13,9.37,7.61,22.25,12.59,38.95,12.59,30.45,0,42.46-16.4,42.46-33.97-.29-23.72-21.67-29.28-40.12-34.26Z"/><path class="cls-2" d="m558.08,125.01h0c0,4.1,3.22,7.32,7.32,7.32h27.53v89.31c0,4.69,3.81,8.49,8.49,8.49h0c4.69,0,8.49-3.81,8.49-8.49v-89.31h19.91c8.2,0,14.93-6.74,14.93-14.93h-79.36c-3.81.29-7.32,3.51-7.32,7.61Z"/><path class="cls-2" d="m764.52,163.66c-14.06-3.51-26.06-6.74-26.06-16.98,0-9.37,8.49-15.81,21.08-15.81,7.91,0,15.52,1.76,22.25,5.27,6.73,3.51,15.52,1.46,20.21-4.69-9.96-10.25-23.72-15.81-41-15.81-23.43,0-39.82,13.47-39.82,32.21,0,22.84,21.08,28.11,38.95,32.8,14.35,3.81,27.23,7.03,27.23,19.03,0,8.2-6.44,17.28-24.6,17.28-12.01,0-21.96-4.39-29.28-10.25-3.51-2.93-8.78-2.05-11.42,1.46h0c-2.64,3.51-2.05,8.2,1.17,11.13,9.37,7.61,22.25,12.59,38.95,12.59,30.45,0,42.46-16.4,42.46-33.97-.29-23.72-21.67-29.28-40.12-34.26Z"/><path class="cls-2" d="m689.26,117.69h0v104.21c0,4.71-3.82,8.53-8.53,8.53h0c-4.67,0-8.46-3.79-8.46-8.46v-87.3c0-9.37,7.61-16.98,16.98-16.98Z"/></g><circle class="cls-2" cx="25.59" cy="185.92" r="8.49"/><path class="cls-2" d="m62.26,271.04c-1.17-.59-2.05-.59-3.22-.59h0c-3.51,0-6.44,2.05-7.61,5.27-1.76,4.39.29,9.08,4.39,11.13,1.17.59,2.05.59,3.22.59,3.51,0,6.44-2.05,7.61-5.27.88-2.05.88-4.39,0-6.44-.88-2.05-2.34-3.81-4.39-4.69Z"/><path class="cls-2" d="m110.64,48.88c1.17,0,2.34-.29,3.22-.59,2.05-.88,3.81-2.64,4.39-4.69.88-2.05.88-4.39,0-6.44-1.46-3.22-4.39-5.27-7.61-5.27-1.17,0-2.34.29-3.22.59-4.39,1.76-6.15,6.74-4.39,11.13,1.17,3.22,4.39,5.27,7.61,5.27Z"/><path class="cls-2" d="m182.68,189.73h0l-54.76-127.67c-.88-1.76-2.34-3.22-4.1-4.1-1.76-.88-3.81-.59-5.56,0-3.81,1.76-5.56,5.86-3.81,9.66l11.71,27.53h0l1.46,3.81-.29.29-33.97,79.06h-41.29c-4.1,0-7.32,3.22-7.32,7.32s3.22,7.32,7.32,7.32h35.43l-25.18,58.57c-.88,1.76-.88,3.81,0,5.56s2.05,3.22,4.1,4.1c1.76.88,3.81.88,5.56,0s3.22-2.05,4.1-4.1l27.53-64.42h64.71l12.3,28.99c3.22,7.61,12.01,11.13,19.62,7.91,0,.59-9.66-21.96-17.57-39.82Zm-72.62-11.13l.59-1.46,25.48-59.15,25.48,59.74.29,1.17h-51.83v-.29Z"/></g></svg>