<?xml version="1.0" encoding="utf-8"?>
<svg version="1.1" id="Logo_with_text_vertical" xmlns="http://www.w3.org/2000/svg" xmlns:xlink="http://www.w3.org/1999/xlink" x="0px" y="0px"
	 viewBox="0 0 161.3 101.7" xml:space="preserve">
<style type="text/css">
	.text{fill:#102240;}
	.icon{fill:#00CCFF;}
</style>
	<g id="icon_with_text">
		<path class="text" d="M12.3,82.3H9l-9,19.4h1.9c0.9,0,1.5-0.4,1.9-1.3l6.8-14.7l6.8,14.7c0.4,0.9,1.1,1.3,1.9,1.3h1.9
			C21.3,101.7,12.3,82.3,12.3,82.3z M111.9,92v-1.3c-6,0-12.1,0-18.1,0v2.6h17.1C111.6,93.3,111.9,92.7,111.9,92z M41.1,82.3
			c-0.9,0-1.5,0.4-1.9,1.3l-6.8,14.7l-6.8-14.7c-0.4-0.9-1-1.3-1.9-1.3h-1.9l9,19.4h3.2l9-19.4C43,82.3,41.1,82.3,41.1,82.3z
			 M59.8,82.3h-6.5c-4.5,0-6.8,2.3-6.8,6.8v5.8c0,4.5,2.3,6.8,6.8,6.8h6.5c4.5,0,6.8-2.3,6.8-6.8v-5.8
			C66.6,84.6,64.3,82.3,59.8,82.3z M63.3,94.9c0,2.8-1.4,4.2-4.2,4.2H54c-2.8,0-4.2-1.4-4.2-4.2v-5.8c0-2.8,1.4-4.2,4.2-4.2h5.2
			c2.8,0,4.2,1.4,4.2,4.2V94.9z M88.1,99.1H75.2V83.6c0-0.9-0.4-1.3-1.3-1.3H72v19.4h17.4v-1.3C89.4,99.6,89,99.1,88.1,99.1z
			 M110.9,99.1H93.8v2.6h18.4v-1.3C112.2,99.6,111.8,99.1,110.9,99.1z M110.6,84.9c0.9,0,1.3-0.4,1.3-1.3v-1.3H93.8v2.6
			C93.8,84.9,110.6,84.9,110.6,84.9z M134.8,82.3c-0.9,0-1.3,0.4-1.3,1.3v14.1l-12.9-15.4h-3.2v19.4h1.9c0.9,0,1.3-0.4,1.3-1.3V86.4
			l12.9,15.4h3.2V82.3C136.8,82.3,134.8,82.3,134.8,82.3z M155.8,90.7h-7.8c-1.9,0-2.9-1-2.9-2.9c0-1.9,1-2.9,2.9-2.9h11.3
			c0.9,0,1.3-0.4,1.3-1.3v-1.3h-13.2c-3.7,0-5.5,1.8-5.5,5.5c0,3.7,1.8,5.5,5.5,5.5h7.8c1.9,0,2.9,1,2.9,2.9c0,1.9-1,2.9-2.9,2.9
			h-11.6c-0.9,0-1.3,0.4-1.3,1.3v1.3h13.6c3.7,0,5.5-1.8,5.5-5.5C161.3,92.6,159.5,90.7,155.8,90.7L155.8,90.7z"/>
		<g id="icon">
			<path class="icon" d="M70.3,45.7C70.3,45.6,70.3,45.6,70.3,45.7z M80.7,0c-10,8.4-18.4,19.1-24.3,30.8c0.5,0.9,1,1.9,1.5,2.8l0,0
				l0,0.1l0.3,0.6l0,0l0.3,0.6l0,0.1l0,0l0,0l0,0c2.2,4,4.8,7.8,7.5,11.4l0,0l0,0l0,0l0,0l0,0l0,0l0,0l0,0l0,0l0,0l0,0l0,0l0,0l0,0
				l0,0l0,0l0,0l0,0l0,0l0,0l0,0l0,0l0,0l0,0l0,0l0,0c0.3,0.4,0.6,0.8,0.9,1.2c0.5,0.6,0.9,1.1,1.4,1.7c2.7-8.1,6.7-15.7,11.8-22.6
				C84.9,32.8,88.4,39,91,45.7c0.5,1.4,1,2.7,1.5,4.1c0.5-0.6,0.9-1.1,1.4-1.7c0.4-0.5,0.8-1,1.2-1.5l0,0l0,0l0,0l0,0l0-0.1l0,0l0,0
				l0,0l0,0v0c2.8-3.6,5.3-7.4,7.5-11.4l0,0l0-0.1l0-0.1l0.1-0.2l0-0.1l0-0.1l0,0l0-0.1l0-0.1l0-0.1l0,0l0,0l0.3-0.6l0,0l0.2-0.3
				l0-0.1l0-0.1l0,0c0.4-0.8,0.8-1.6,1.2-2.4C99.1,19.1,90.7,8.4,80.7,0z M60.6,30.8C65.7,21.1,72.5,12.4,80.7,5
				c8.1,7.4,15,16.1,20.1,25.8c-2.1,4-4.5,7.8-7.1,11.4c-2.8-6.5-6.3-12.5-10.6-18c-0.8-1-1.6-2-2.4-3c-0.8,1-1.6,2-2.4,3l0,0l0,0
				c-4.2,5.5-7.8,11.5-10.6,18C65.1,38.6,62.7,34.8,60.6,30.8L60.6,30.8z"/>
			<path class="icon" d="M71.3,52.6c0.4,0.4,0.7,0.8,1.1,1.2c0.9,0.9,1.7,1.8,2.6,2.7c0.9,0.9,1.8,1.8,2.8,2.6
				c0.9,0.9,1.9,1.7,2.9,2.5c1-0.8,1.9-1.7,2.9-2.5c0.9-0.9,1.9-1.7,2.8-2.6c0.9-0.9,1.8-1.8,2.6-2.7c0.4-0.4,0.7-0.8,1.1-1.2
				l-0.6-1.8c-0.3-0.8-0.5-1.5-0.8-2.3l-0.1,0.1c-0.8,0.9-1.7,1.9-2.5,2.8c-0.9,0.9-1.7,1.8-2.6,2.7c-0.9,0.9-1.8,1.7-2.8,2.6
				c-0.9-0.8-1.9-1.7-2.8-2.6c-0.9-0.9-1.8-1.8-2.6-2.7c-0.9-0.9-1.7-1.8-2.5-2.8l-0.1-0.1c-0.3,0.8-0.5,1.5-0.8,2.3L71.3,52.6
				L71.3,52.6z M106.7,27.2l0-0.1c0.5-1.1,1-2.3,1.5-3.5c0.5-1.2,0.9-2.3,1.3-3.5c0.4-1.2,0.8-2.4,1.2-3.6c0.4-1.2,0.7-2.4,1.1-3.6
				c0.3-1.2,0.6-2.4,0.9-3.7c-1.2-0.4-2.4-0.8-3.6-1.2c-1.2-0.4-2.4-0.7-3.6-1c-1.2-0.3-2.4-0.6-3.7-0.9c-1.2-0.3-2.5-0.5-3.7-0.7
				c-1.2-0.2-2.5-0.4-3.7-0.6c-1.5-0.2-3-0.4-4.5-0.5c1.3,1.4,2.6,2.8,3.9,4.3C95,8.6,96.1,8.8,97.3,9c1.2,0.2,2.5,0.5,3.7,0.7
				c1.2,0.3,2.5,0.6,3.7,0.9c1.2,0.3,2.4,0.7,3.6,1c-0.3,1.2-0.7,2.4-1.1,3.6c-0.4,1.2-0.8,2.4-1.2,3.6c-0.4,1.2-0.9,2.4-1.3,3.5
				c-0.1,0.2-0.2,0.4-0.3,0.6C105.2,24.4,106,25.8,106.7,27.2z M52.2,8c-1.2,0.4-2.4,0.8-3.6,1.2c0.3,1.2,0.6,2.5,0.9,3.7
				c0.3,1.2,0.7,2.4,1.1,3.6c0.4,1.2,0.8,2.4,1.2,3.6c0.4,1.2,0.9,2.4,1.3,3.5c0.5,1.2,1,2.3,1.5,3.5l0,0.1c0.7-1.4,1.5-2.8,2.3-4.1
				c-0.1-0.2-0.2-0.4-0.3-0.6c-0.5-1.2-0.9-2.3-1.3-3.5c-0.4-1.2-0.8-2.4-1.2-3.6c-0.4-1.2-0.7-2.4-1.1-3.6c1.2-0.4,2.4-0.7,3.6-1
				c1.2-0.3,2.4-0.6,3.7-0.9c1.2-0.3,2.5-0.5,3.7-0.7c1.1-0.2,2.3-0.4,3.5-0.6c1.3-1.5,2.6-2.9,3.9-4.3c-1.5,0.1-3,0.3-4.6,0.5
				c-1.2,0.2-2.5,0.4-3.7,0.6c-1.2,0.2-2.5,0.5-3.7,0.7h0C58.2,6.4,57,6.7,55.8,7C54.6,7.3,53.4,7.7,52.2,8z"/>
		</g>
	</g>
</svg>
